# xmcd CD Database Entry
#
# Track frame offsets:
# 150
# 15230
# 29722
# 35487
# 50622
# 68645
# 78822
# 90792
# 100270
# 110675
# 124440
# 136892
# 150027
# 168670
# 180875
# 189425
# 206280
# 218462
# 226315
# 236355
# 244612
# 260570
# 265382
# 273232
#
# Disc length: 3897 seconds
#
# Revision: 2
# Processed by: cddbd v1.4PL0 Copyright (c) Steve Scherf et al.
# Submitted via: tcd 2.0b
#
DISCID=2f0f3718
DTITLE=Maria Bethbnia - O Talento de Maria Bethbnia
DYEAR=1900
DGENRE=
TTITLE0=Baby
TTITLE1=Pi da roseira
TTITLE2=Cafi sogaite
TTITLE3=Ele falava nisso todo dia
TTITLE4=Com agzcar, com afeto
TTITLE5=Meiga presenga
TTITLE6=Carinhoso
TTITLE7=Lama
TTITLE8=Fssforo queimado
TTITLE9=Nada alim
TTITLE10=Camisa listada
TTITLE11=Ponto de iansc
TTITLE12=Marina
TTITLE13=Zltimo desejo
TTITLE14=9o andar
TTITLE15=Pra dizer adeus
TTITLE16=Ponto de oxossi
TTITLE17=Ye-mele
TTITLE18=Molambo
TTITLE19=Irene
TTITLE20=Os argonautas
TTITLE21=Pano legal
TTITLE22=Se todos Fossem iguais a vocj
TTITLE23=Samba de Roda
EXTD=
EXTT0=
EXTT1=
EXTT2=
EXTT3=
EXTT4=
EXTT5=
EXTT6=
EXTT7=
EXTT8=
EXTT9=
EXTT10=
EXTT11=
EXTT12=
EXTT13=
EXTT14=
EXTT15=
EXTT16=
EXTT17=
EXTT18=
EXTT19=
EXTT20=
EXTT21=
EXTT22=
EXTT23=
PLAYORDER=
